M48
METRIC,LZ,000.000
;FILE_FORMAT=3:3
;TYPE=PLATED
;Layer: PTH_Through
;EasyEDA v6.5.38, 2023-11-23 17:22:46
;1afb102ce3c94d729b8c5533a6be374a,15c74d7bfa284007874df21313af148a,10
;Gerber Generator version 0.2
;Holesize 1 = 1.000 mm
T01C1.000
;Holesize 2 = 1.200 mm
T02C1.200
%
G05
G90
T01
X043066Y003237
X043066Y020763
X002934Y003237
X002934Y020763
X052500Y002590
X052500Y005130
X052500Y007670
X052500Y010210
X008600Y008100
X008600Y010640
X008600Y013180
X008600Y015720
X006060Y015720
X006060Y013180
X006060Y010640
X006060Y008100
X033240Y008040
X033240Y010580
X033240Y013120
X033240Y015660
T02
X051200Y020804
X051200Y015796
M30
